# xmcd CD database file
#
# Track frame offsets:
#	150
#	24343
#	47968
#	67920
#	78797
#	105249
#	143707
#	172360
#	201350
#
# Disc length: 3155 seconds
#
# Revision: 0
# Processed by: cddbd v1.5.1PL0 Copyright (c) Steve Scherf et al.
# Submitted via: CDex 1.51
#
DISCID=730c5109
DTITLE=Winand (Gabor) - Different Garden
DYEAR=2004
DGENRE=Jazz
TTITLE0=Up jumped spring
TTITLE1=Turn out the stars
TTITLE2=My heart belongs to daddy
TTITLE3=Body and soul
TTITLE4=Bird alone
TTITLE5=Special time
TTITLE6=Csengö
TTITLE7=Sunshower
TTITLE8=In a sentimental mood
EXTD=YEAR: 2004
EXTT0=
EXTT1=
EXTT2=
EXTT3=
EXTT4=
EXTT5=
EXTT6=
EXTT7=
EXTT8=
PLAYORDER=
